<svg aria-hidden="true" style="position: absolute; width: 0; height: 0; overflow: hidden;" version="1.1" xmlns="http://www.w3.org/2000/svg" xmlns:xlink="http://www.w3.org/1999/xlink">
<defs>
<symbol id="icon-arrow-1" viewBox="0 0 32 32">
<path d="M30.522 16.808c0.446-0.446 0.446-1.17 0-1.616l-7.273-7.273c-0.446-0.446-1.17-0.446-1.616 0s-0.446 1.17 0 1.616l6.465 6.465-6.465 6.465c-0.446 0.446-0.446 1.17 0 1.616s1.17 0.446 1.616 0l7.273-7.273zM2.286 17.143h27.429v-2.286h-27.429v2.286z"></path>
</symbol>
<symbol id="icon-burger" viewBox="0 0 32 32">
<path stroke-linejoin="round" stroke-linecap="round" stroke-miterlimit="4" stroke-width="2.4" d="M1.6 20h28.8M1.6 12h28.8"></path>
</symbol>
<symbol id="icon-play" viewBox="0 0 32 32">
<path d="M6 4l20 12-20 12z"></path>
</symbol>
<symbol id="icon-linkedin" viewBox="0 0 32 32">
<path d="M12.571 11.961h4.952v2.467c0.713-1.419 2.543-2.693 5.291-2.693 5.268 0 6.519 2.824 6.519 8.005v9.596h-5.333v-8.416c0-2.951-0.713-4.615-2.529-4.615-2.519 0-3.565 1.793-3.565 4.613v8.417h-5.333v-17.375zM3.426 29.109h5.333v-17.375h-5.333v17.375zM9.523 6.069c0 0.447-0.088 0.89-0.261 1.302s-0.425 0.787-0.743 1.101c-0.645 0.641-1.518 1-2.427 0.997-0.907-0.001-1.778-0.358-2.424-0.996-0.317-0.315-0.569-0.69-0.741-1.102s-0.261-0.855-0.262-1.302c0-0.903 0.36-1.767 1.004-2.404 0.645-0.638 1.516-0.996 2.424-0.996 0.909 0 1.781 0.359 2.425 0.996 0.643 0.637 1.004 1.501 1.004 2.404z"></path>
</symbol>
<symbol id="icon-arrow-2" viewBox="0 0 32 32">
<path d="M31.061 17.061c0.586-0.586 0.586-1.536 0-2.121l-9.546-9.546c-0.586-0.586-1.535-0.586-2.121 0s-0.586 1.536 0 2.121l8.485 8.485-8.485 8.485c-0.586 0.586-0.586 1.535 0 2.121s1.535 0.586 2.121 0l9.546-9.546zM2 17.5h28v-3h-28v3z"></path>
</symbol>
<symbol id="icon-close" viewBox="0 0 32 32">
<path d="M0.054 26.689l26.635-26.635 5.284 5.284-26.635 26.635-5.284-5.284zM0 5.338l5.338-5.338 26.662 26.662-5.338 5.338-26.662-26.662z"></path>
</symbol>
<symbol id="icon-telegram" viewBox="0 0 32 32">
<path d="M29.402 2.839l-28.35 10.989c-1.141 0.512-1.527 1.537-0.276 2.093l7.273 2.323 17.586-10.924c0.96-0.686 1.943-0.503 1.097 0.252l-15.104 13.746-0.474 5.817c0.439 0.898 1.244 0.902 1.757 0.456l4.179-3.974 7.157 5.387c1.662 0.989 2.567 0.351 2.924-1.462l4.694-22.342c0.487-2.232-0.344-3.215-2.463-2.36z"></path>
</symbol>
<symbol id="icon-arrow-next" viewBox="0 0 32 32">
<path d="M30.522 16.808c0.446-0.446 0.446-1.17 0-1.616l-7.273-7.273c-0.446-0.446-1.17-0.446-1.616 0s-0.446 1.17 0 1.616l6.465 6.465-6.465 6.465c-0.446 0.446-0.446 1.17 0 1.616s1.17 0.446 1.616 0l7.273-7.273zM2.286 17.143h27.429v-2.286h-27.429v2.286z"></path>
</symbol>
<symbol id="icon-arrow-prev" viewBox="0 0 32 32">
<path d="M1.478 16.808c-0.446-0.446-0.446-1.17 0-1.616l7.273-7.273c0.446-0.446 1.17-0.446 1.616 0s0.446 1.17 0 1.616l-6.465 6.465 6.465 6.465c0.446 0.446 0.446 1.17 0 1.616s-1.17 0.446-1.616 0l-7.273-7.273zM29.714 17.143h-27.429v-2.286h27.429v2.286z"></path>
</symbol>
<symbol id="icon-red-lips" viewBox="0 0 43 32">
<path fill="#a50807" style="fill: var(--color1, #a50807)" d="M27.399 30.434c-0.293-0.004-0.591-0.248-0.863-0.704l-0.416-0.698 0.116 0.884c0.207 1.581-1.22 1.702-1.985 0.168-0.234-0.469-0.519-0.878-0.634-0.909s0.007 0.323 0.272 0.785 0.475 1.004 0.467 1.201c-0.019 0.463-0.95 0.743-1.754 0.528-0.326-0.087-0.768-0.057-0.982 0.066-0.603 0.348-1.612 0.321-2.895-0.078-0.644-0.2-1.333-0.27-1.53-0.157-0.467 0.269-1.64-0.206-2.035-0.824-0.2-0.314-0.272-0.35-0.204-0.102 0.201 0.734-0.568 0.843-1.237 0.175-0.517-0.516-0.707-0.575-1.108-0.343-0.496 0.286-0.828 0.21-2.32-0.535-0.472-0.236-1.227-0.464-1.678-0.507-0.546-0.052-0.913-0.24-1.099-0.561-0.203-0.351-0.339-0.408-0.501-0.209-0.134 0.165-0.437 0.165-0.764 0-0.298-0.15-0.824-0.246-1.168-0.213-0.846 0.082-3.063-0.345-3.234-0.622-0.075-0.123-0.031-0.451 0.098-0.729 0.203-0.435 0.328-0.509 0.896-0.534 0.364-0.016 0.768-0.089 0.899-0.164s0.288-0.050 0.348 0.054c0.060 0.105 0.281 0.091 0.49-0.029s0.637-0.151 0.95-0.067c0.411 0.11 0.594 0.062 0.658-0.174s0.333-0.346 0.968-0.396c0.855-0.067 0.89-0.044 1.218 0.803l0.337 0.872 0.077-0.996c0.068-0.875 0.171-1.050 0.849-1.441 0.425-0.245 1.164-0.855 1.643-1.354 1.047-1.092 1.654-1.136 1.269-0.092-0.198 0.538-0.182 0.615 0.098 0.46 0.185-0.102 0.292-0.263 0.237-0.357-0.14-0.243 0.739-1.212 1.495-1.649 0.466-0.269 0.686-0.283 0.819-0.053 0.169 0.293 0.193 0.279 0.348-0.201 0.184-0.573 1.238-1.285 1.524-1.031 0.101 0.090 0.57-0.053 1.042-0.318 1.069-0.598 1.852-0.736 2.066-0.365 0.090 0.156 0.169 0.688 0.175 1.181 0.011 0.938 0.222 1.52 0.493 1.364 0.088-0.051 0.075-0.498-0.028-0.995-0.217-1.043 0.145-1.927 0.927-2.265 0.43-0.186 0.598-0.138 0.791 0.23 0.23 0.438 0.249 0.436 0.299-0.031 0.030-0.274 0.162-0.583 0.293-0.687s0.376-0.339 0.543-0.522c0.424-0.464 1.142 0.094 1.973 1.533 0.483 0.836 0.714 1.088 0.852 0.927 0.104-0.122 0.076-0.372-0.061-0.556s-0.567-0.752-0.953-1.261l-0.702-0.926 0.772-0.446c0.814-0.47 0.853-0.454 2.192 0.89 0.286 0.287-0.271-0.525-0.995-1.45-0.39-0.498 0.71-1.571 1.452-1.417 0.453 0.094 0.52 0.058 0.607-0.332 0.063-0.285 0.306-0.509 0.694-0.64 0.468-0.158 0.576-0.297 0.5-0.644-0.113-0.513 0.028-0.639 0.571-0.511 0.311 0.074 0.379 0.035 0.339-0.196-0.055-0.316 0.435-0.693 0.578-0.445 0.049 0.085 0.317 0.243 0.596 0.353 0.459 0.18 0.446 0.157-0.135-0.238-0.911-0.619-0.895-1.020 0.064-1.68 0.607-0.418 0.942-0.52 1.311-0.401 0.635 0.204 0.905 0.050 0.587-0.336-0.308-0.373 0.627-1.113 1.439-1.139 0.388-0.012 0.56-0.108 0.624-0.345 0.114-0.426 0.983-0.924 1.411-0.809 0.196 0.053 0.401-0.038 0.495-0.218 0.266-0.506 1.221-1.027 1.946-1.060 0.532-0.025 0.649-0.084 0.542-0.276-0.161-0.287 1.477-2.389 2.006-2.573 0.706-0.246 0.998 0.593 0.629 1.809-0.677 2.23-1.031 2.788-1.527 2.4-0.128-0.1-0.118 0.036 0.023 0.303s0.246 0.612 0.232 0.767c-0.046 0.534-0.8 2.097-1.093 2.266-0.162 0.093-0.225 0.414-0.14 0.711s0.008 0.828-0.172 1.177c-0.179 0.349-0.561 1.489-0.849 2.532s-0.594 1.877-0.681 1.854c-0.087-0.023-0.407-0.328-0.71-0.678l-0.552-0.635 0.476 0.874c0.434 0.797 0.434 1.026 0.005 2.597-0.259 0.947-0.533 1.758-0.608 1.801s-0.281-0.151-0.458-0.433c-0.268-0.429-0.282-0.363-0.083 0.406 0.392 1.513-0.158 2.869-0.872 2.146-0.262-0.265-0.333-0.179-0.608 0.741-0.464 1.55-0.795 1.534-1.905-0.089l-0.931-1.362 0.682 1.261c0.885 1.635 0.844 2.295-0.178 2.885-0.593 0.342-0.837 0.369-1.132 0.124-0.338-0.281-0.384-0.267-0.452 0.134-0.045 0.265-0.371 0.617-0.798 0.863-1.108 0.64-1.406 0.616-1.876-0.148l-0.419-0.682 0.217 0.722c0.119 0.397 0.185 0.836 0.146 0.976-0.126 0.447-0.884 1.017-1.346 1.011zM30.835 25.295c-0.476-0.824-0.904-1.38-1.014-1.317-0.205 0.118 0.921 2.208 1.399 2.595 0.527 0.426 0.447 0.163-0.385-1.278zM19.353 28.484c-0.315-0.17-0.401-0.055-0.208 0.279 0.094 0.163 0.227 0.193 0.296 0.065s0.029-0.282-0.087-0.345zM29.956 16.384c-1.236-0.818-1.041-0.232 0.226 0.679 0.638 0.459 0.928 0.57 0.848 0.324-0.066-0.205-0.55-0.657-1.074-1.003zM20.735 15.422c-0.42-0.13-0.943-0.107-1.222 0.054-0.789 0.455-1.731-0.065-2.556-1.411-0.405-0.66-0.568-0.847-0.386-0.44 0.757 1.69 0.619 2.235-0.44 1.742-0.465-0.217-0.531-0.195-0.641 0.217-0.109 0.408-0.231 0.479-1.1 0.648-0.761 0.148-1.103 0.323-1.546 0.792-0.896 0.95-1.108 0.993-1.8 0.363-1.024-0.931-1.206-0.82-0.425 0.259 0.7 0.967 0.71 1.013 0.293 1.417-0.519 0.502-1.171 0.441-1.507-0.142-0.132-0.229-0.436-0.503-0.677-0.609-0.377-0.166-0.368-0.096 0.069 0.517 0.833 1.17 0.56 2.334-0.482 2.055-0.267-0.072-0.336-0.002-0.289 0.294 0.098 0.619-0.339 0.69-1.278 0.21-1.025-0.524-1.292-0.302-0.756 0.627l0.384 0.666-0.958 0.629c-0.796 0.523-1.035 0.588-1.417 0.385-0.423-0.225-0.472-0.205-0.62 0.253-0.119 0.369-0.256 0.481-0.532 0.434s-0.596 0.207-1.237 0.977c-0.734 0.882-0.916 1.014-1.194 0.869-0.39-0.203-0.472-0.566-0.389-1.719 0.047-0.659 0.199-0.937 0.655-1.202 0.614-0.356 1.379-2.169 1.111-2.633-0.176-0.305 0.497-1.142 1.403-1.742 0.586-0.388 0.699-0.574 0.564-0.919-0.207-0.527 0.285-1.669 0.982-2.282 0.294-0.258 0.474-0.633 0.421-0.875-0.051-0.233 0.030-0.494 0.179-0.581s0.223-0.243 0.163-0.347c-0.269-0.466 0.648-0.56 1.334-0.136 0.748 0.462 1.159 0.488 0.893 0.055-0.079-0.129-0.39-0.377-0.69-0.552-0.826-0.481-0.844-0.631-0.227-1.821 0.853-1.645 1.114-2.001 1.516-2.064 0.201-0.032 0.311-0.153 0.244-0.268-0.206-0.357 0.176-0.412 0.667-0.095 0.425 0.274 0.426 0.253 0.010-0.242-0.361-0.428-0.402-0.632-0.195-0.965 0.643-1.035 0.984-1.309 1.664-1.34 0.842-0.038 0.863-0.050 0.661-0.401-0.188-0.325 0.262-0.667 0.622-0.473 0.165 0.089 0.278 0.021 0.368-0.222 0.417-1.127 1.719-1.298 2.664-0.349 0.535 0.537 0.574 0.547 0.327 0.078-0.332-0.628 0.091-1.005 0.603-0.538 0.187 0.171 0.506 0.215 0.708 0.098 0.222-0.128 0.445-0.081 0.564 0.118 0.16 0.269 0.217 0.201 0.307-0.367 0.061-0.384 0.077-0.947 0.036-1.252-0.058-0.436 0.038-0.586 0.449-0.703 0.288-0.082 0.503-0.249 0.479-0.371s0.202-0.438 0.503-0.702c0.476-0.418 0.576-0.429 0.774-0.087 0.125 0.216 0.172 0.495 0.105 0.62-0.152 0.283 0.025 0.62 0.256 0.486 0.094-0.054 0.113-0.407 0.041-0.784-0.158-0.831 0.46-1.311 1.053-0.818 0.231 0.192 0.395 0.211 0.399 0.047 0.011-0.361 2.215-0.837 2.403-0.518 0.073 0.124 0.129 0.634 0.124 1.133s0.080 0.856 0.188 0.794c0.108-0.062 0.155-0.302 0.104-0.534s-0.012-0.669 0.086-0.973c0.169-0.526 0.229-0.561 1.226-0.72 0.756-0.121 1.109-0.063 1.266 0.21 0.171 0.296 0.288 0.301 0.542 0.023 0.214-0.235 0.535-0.31 0.95-0.221 0.344 0.073 1.265 0.085 2.045 0.025s1.608-0.008 1.839 0.115c0.231 0.123 0.553 0.146 0.716 0.052 0.388-0.224 0.969-0.060 1.199 0.338 0.136 0.236 0.291 0.222 0.616-0.058 0.337-0.292 0.508-0.298 0.773-0.031 0.187 0.189 0.466 0.271 0.62 0.181s0.425-0.016 0.602 0.163c0.179 0.181 0.573 0.249 0.889 0.153 0.312-0.094 0.89-0.108 1.284-0.029s1.033 0.152 1.421 0.164c0.809 0.025 1.963 0.688 2.039 1.171 0.077 0.489-1.604 1.407-2.142 1.169-0.339-0.15-0.703-0.010-1.942 0.747-1.232 0.752-1.556 0.878-1.686 0.653-0.089-0.153-0.106-0.381-0.039-0.506s0.063-0.329-0.009-0.453c-0.072-0.124-0.241 0.265-0.375 0.865-0.254 1.138-0.671 1.548-1.595 1.568-0.301 0.006-0.726 0.146-0.945 0.31-0.308 0.231-0.453 0.203-0.643-0.125-0.23-0.398-0.254-0.393-0.411 0.092-0.193 0.598-0.826 1.012-1.845 1.206-0.863 0.164-1.177-0.254-1.251-1.662-0.065-1.25-0.108-1.295-0.325-0.343-0.099 0.433-0.113 0.902-0.032 1.042 0.323 0.56-0.060 1.447-0.904 2.097l-0.85 0.654-0.665-1.302c-0.366-0.716-0.712-1.275-0.77-1.242s0.083 0.625 0.311 1.315c0.481 1.452 0.419 1.731-0.557 2.524l-0.718 0.583-0.893-1.734c-0.69-1.34-0.832-1.539-0.627-0.873 0.146 0.473 0.535 1.339 0.864 1.923 0.676 1.199 0.661 1.746-0.047 1.768-0.29 0.009-0.597-0.207-0.832-0.585l-0.372-0.6 0.208 0.697c0.329 1.102 0.198 2.027-0.318 2.234-0.414 0.166-0.519 0.067-1.304-1.228-1.235-2.039-1.255-2.065-1.456-1.949-0.101 0.059 0.271 0.949 0.833 1.992 0.962 1.785 0.995 1.902 0.626 2.191-0.245 0.192-0.663 0.222-1.125 0.079zM18.617 12.629c-0.126-0.099-0.078 0.075 0.107 0.387s0.288 0.392 0.23 0.179c-0.059-0.213-0.21-0.468-0.336-0.566zM7.513 17.603c-0.133-0.072-0.333-0.078-0.445-0.014-0.126 0.073-0.049 0.174 0.206 0.268 0.442 0.164 0.635-0.041 0.239-0.254zM12.622 7.099c-0.1-0.027-0.080 0.112 0.044 0.307 0.137 0.216 0.208 0.235 0.181 0.049-0.024-0.169-0.126-0.329-0.225-0.356z"></path>
</symbol>
</defs>
</svg>

