<svg aria-hidden="true" style="position: absolute; width: 0; height: 0; overflow: hidden;" version="1.1" xmlns="http://www.w3.org/2000/svg" xmlns:xlink="http://www.w3.org/1999/xlink">
<defs>
<symbol id="icon-arrow-1" viewBox="0 0 32 32">
<path d="M30.522 16.808c0.446-0.446 0.446-1.17 0-1.616l-7.273-7.273c-0.446-0.446-1.17-0.446-1.616 0s-0.446 1.17 0 1.616l6.465 6.465-6.465 6.465c-0.446 0.446-0.446 1.17 0 1.616s1.17 0.446 1.616 0l7.273-7.273zM2.286 17.143h27.429v-2.286h-27.429v2.286z"></path>
</symbol>
<symbol id="icon-burger" viewBox="0 0 32 32">
<path stroke-linejoin="round" stroke-linecap="round" stroke-miterlimit="4" stroke-width="2.4" d="M1.6 20h28.8M1.6 12h28.8"></path>
</symbol>
<symbol id="icon-play" viewBox="0 0 32 32">
<path d="M6 4l20 12-20 12z"></path>
</symbol>
<symbol id="icon-linkedin" viewBox="0 0 32 32">
<path d="M12.571 11.961h4.952v2.467c0.713-1.419 2.543-2.693 5.291-2.693 5.268 0 6.519 2.824 6.519 8.005v9.596h-5.333v-8.416c0-2.951-0.713-4.615-2.529-4.615-2.519 0-3.565 1.793-3.565 4.613v8.417h-5.333v-17.375zM3.426 29.109h5.333v-17.375h-5.333v17.375zM9.523 6.069c0 0.447-0.088 0.89-0.261 1.302s-0.425 0.787-0.743 1.101c-0.645 0.641-1.518 1-2.427 0.997-0.907-0.001-1.778-0.358-2.424-0.996-0.317-0.315-0.569-0.69-0.741-1.102s-0.261-0.855-0.262-1.302c0-0.903 0.36-1.767 1.004-2.404 0.645-0.638 1.516-0.996 2.424-0.996 0.909 0 1.781 0.359 2.425 0.996 0.643 0.637 1.004 1.501 1.004 2.404z"></path>
</symbol>
<symbol id="icon-arrow-2" viewBox="0 0 32 32">
<path d="M31.061 17.061c0.586-0.586 0.586-1.536 0-2.121l-9.546-9.546c-0.586-0.586-1.535-0.586-2.121 0s-0.586 1.536 0 2.121l8.485 8.485-8.485 8.485c-0.586 0.586-0.586 1.535 0 2.121s1.535 0.586 2.121 0l9.546-9.546zM2 17.5h28v-3h-28v3z"></path>
</symbol>
<symbol id="icon-close" viewBox="0 0 32 32">
<path d="M0.054 26.689l26.635-26.635 5.284 5.284-26.635 26.635-5.284-5.284zM0 5.338l5.338-5.338 26.662 26.662-5.338 5.338-26.662-26.662z"></path>
</symbol>
<symbol id="icon-telegram" viewBox="0 0 32 32">
<path d="M29.402 2.839l-28.35 10.989c-1.141 0.512-1.527 1.537-0.276 2.093l7.273 2.323 17.586-10.924c0.96-0.686 1.943-0.503 1.097 0.252l-15.104 13.746-0.474 5.817c0.439 0.898 1.244 0.902 1.757 0.456l4.179-3.974 7.157 5.387c1.662 0.989 2.567 0.351 2.924-1.462l4.694-22.342c0.487-2.232-0.344-3.215-2.463-2.36z"></path>
</symbol>
<symbol id="icon-arrow-next" viewBox="0 0 32 32">
<path d="M30.522 16.808c0.446-0.446 0.446-1.17 0-1.616l-7.273-7.273c-0.446-0.446-1.17-0.446-1.616 0s-0.446 1.17 0 1.616l6.465 6.465-6.465 6.465c-0.446 0.446-0.446 1.17 0 1.616s1.17 0.446 1.616 0l7.273-7.273zM2.286 17.143h27.429v-2.286h-27.429v2.286z"></path>
</symbol>
<symbol id="icon-arrow-prev" viewBox="0 0 32 32">
<path d="M1.478 16.808c-0.446-0.446-0.446-1.17 0-1.616l7.273-7.273c0.446-0.446 1.17-0.446 1.616 0s0.446 1.17 0 1.616l-6.465 6.465 6.465 6.465c0.446 0.446 0.446 1.17 0 1.616s-1.17 0.446-1.616 0l-7.273-7.273zM29.714 17.143h-27.429v-2.286h27.429v2.286z"></path>
</symbol>
<symbol id="icon-arrow-up" viewBox="0 0 32 32">
<path fill="#f9f9f9" d="M16.771 0.683c-0.426-0.426-1.117-0.426-1.543 0l-6.943 6.942c-0.426 0.426-0.426 1.117 0 1.543s1.117 0.426 1.543 0l6.171-6.171 6.171 6.171c0.426 0.426 1.117 0.426 1.543 0s0.426-1.117 0-1.543l-6.943-6.942zM17.091 30.545v-29.091h-2.182v29.091h2.182z"></path>
</symbol>
</defs>
</svg>

