<svg width="32" height="32" viewBox="0 0 32 32" fill="none" xmlns="http://www.w3.org/2000/svg">
<rect width="32" height="32" rx="8" fill="url(#paint0_linear_936_148)"/>
<path d="M9.25117 23V8.44922H14.593C15.6216 8.44922 16.4745 8.61849 17.1516 8.95703C17.8286 9.29557 18.3332 9.75456 18.6652 10.334C19.0038 10.9069 19.173 11.5514 19.173 12.2676C19.173 12.873 19.0591 13.3841 18.8313 13.8008C18.6099 14.2174 18.3137 14.5495 17.9426 14.7969C17.5715 15.0443 17.1613 15.2266 16.7121 15.3438V15.4805C17.2004 15.5065 17.6757 15.6628 18.1379 15.9492C18.6001 16.2357 18.981 16.6426 19.2805 17.1699C19.5865 17.6908 19.7395 18.3288 19.7395 19.084C19.7395 19.8262 19.5637 20.4935 19.2121 21.0859C18.8671 21.6719 18.3332 22.1374 17.6105 22.4824C16.8879 22.8275 15.9602 23 14.8273 23H9.25117ZM11.4484 21.125H14.6125C15.6672 21.125 16.4224 20.9199 16.8781 20.5098C17.3339 20.0996 17.5617 19.5885 17.5617 18.9766C17.5617 18.5143 17.4445 18.0944 17.2102 17.7168C16.9823 17.3327 16.6535 17.0267 16.2238 16.7988C15.7941 16.571 15.2863 16.457 14.7004 16.457H11.4484V21.125ZM11.4484 14.748H14.3977C14.8859 14.748 15.3286 14.6536 15.7258 14.4648C16.1229 14.276 16.4354 14.0091 16.6633 13.6641C16.8977 13.3125 17.0148 12.9056 17.0148 12.4434C17.0148 11.8444 16.8033 11.3431 16.3801 10.9395C15.9634 10.5293 15.3221 10.3242 14.4563 10.3242H11.4484V14.748ZM22.323 23.1367C21.9259 23.1367 21.5874 23 21.3074 22.7266C21.034 22.4531 20.8973 22.1178 20.8973 21.7207C20.8973 21.3236 21.034 20.9883 21.3074 20.7148C21.5874 20.4414 21.9259 20.3047 22.323 20.3047C22.7202 20.3047 23.0555 20.4414 23.3289 20.7148C23.6089 20.9883 23.7488 21.3236 23.7488 21.7207C23.7488 22.1178 23.6089 22.4531 23.3289 22.7266C23.0555 23 22.7202 23.1367 22.323 23.1367Z" fill="#F9F9F9"/>
<defs>
<linearGradient id="paint0_linear_936_148" x1="16" y1="0" x2="16" y2="32" gradientUnits="userSpaceOnUse">
<stop stop-color="#A50807"/>
<stop offset="1" stop-color="#870605"/>
</linearGradient>
</defs>
</svg>
